<?xml version="1.0" standalone="no"?>
<!DOCTYPE svg PUBLIC "-//W3C//DTD SVG 20010904//EN"
 "http://www.w3.org/TR/2001/REC-SVG-20010904/DTD/svg10.dtd">
<svg version="1.0" xmlns="http://www.w3.org/2000/svg"
 width="445.000000pt" height="442.000000pt" viewBox="0 0 445.000000 442.000000"
 preserveAspectRatio="xMidYMid meet">

<g transform="translate(0.000000,442.000000) scale(0.100000,-0.100000)"
fill="#000000" stroke="none">
<path d="M0 2210 l0 -2210 2225 0 2225 0 0 2210 0 2210 -2225 0 -2225 0 0
-2210z m3731 2163 c99 -25 246 -79 255 -95 5 -8 1 -9 -12 -4 -66 27 -173 61
-264 84 l-105 26 -1145 3 c-630 2 -1190 5 -1245 6 -55 2 469 3 1165 2 1253 -1
1266 -1 1351 -22z m-2643 10 c-10 -2 -26 -2 -35 0 -10 3 -2 5 17 5 19 0 27 -2
18 -5z m-85 -10 c-7 -2 -21 -2 -30 0 -10 3 -4 5 12 5 17 0 24 -2 18 -5z m2756
-119 c251 -72 421 -229 523 -485 60 -148 58 -106 58 -1579 0 -1315 0 -1349
-20 -1426 -78 -307 -255 -503 -546 -607 -135 -48 -144 -48 -1544 -44 l-1315 3
-90 22 c-177 44 -381 167 -476 289 -53 67 -109 171 -139 258 -51 146 -50 118
-50 1505 0 779 4 1325 10 1370 6 41 18 98 27 125 l18 50 7 -135 c5 -86 15
-167 29 -220 l23 -85 3 -1190 c3 -1249 2 -1225 49 -1377 52 -164 194 -323 359
-404 176 -85 38 -78 1525 -82 966 -2 1345 0 1399 8 159 25 274 85 396 209 97
97 145 182 183 318 l26 98 4 1225 c3 1275 0 1424 -38 1555 -54 190 -170 335
-335 417 -55 28 -161 63 -215 72 -19 3 -534 8 -1144 11 l-1109 5 -41 33 c-23
18 -59 44 -81 58 l-40 24 1145 5 c630 3 1190 2 1244 -2 55 -4 124 -15 155 -24z
m322 -41 c7 -8 -8 -1 -34 17 -26 17 -47 33 -47 35 0 8 68 -36 81 -52z m-2969
-20 c101 -40 184 -100 252 -181 86 -102 145 -262 146 -395 l0 -47 78 49 c42
26 105 67 139 90 71 47 177 92 291 123 64 18 104 21 237 21 198 0 300 -24 456
-104 275 -141 449 -351 526 -634 25 -91 27 -116 27 -275 0 -161 -3 -182 -27
-263 -72 -233 -208 -417 -407 -549 -102 -67 -261 -143 -340 -162 -122 -29
-299 -30 -415 -3 -11 2 -42 8 -70 12 l-50 7 33 13 c35 15 44 36 12 28 -11 -3
-20 -1 -20 4 0 6 -29 23 -65 39 -35 16 -65 35 -65 42 0 6 -9 12 -21 12 -15 0
-19 -5 -15 -15 3 -9 0 -15 -10 -15 -10 0 -14 -6 -10 -15 8 -21 4 -20 -71 26
-223 136 -390 358 -454 604 -21 81 -24 110 -22 292 l1 203 -27 -7 c-14 -3 -57
-17 -96 -31 -95 -33 -280 -42 -375 -18 -291 74 -486 393 -426 697 35 180 147
339 296 422 100 55 156 67 295 63 105 -3 129 -7 197 -33z m1858 -183 c11 -11
17 -26 14 -35 -7 -17 -20 -20 -29 -5 -8 13 -42 13 -49 1 -4 -5 6 -23 20 -40
l26 -31 -31 0 c-24 0 -34 7 -46 30 -14 27 -14 32 2 56 15 23 43 41 66 43 4 1
16 -8 27 -19z m-1202 -6 c14 -10 22 -25 22 -45 0 -65 -81 -96 -122 -47 -23 27
-23 49 3 82 24 30 63 34 97 10z m1918 -82 c4 -20 8 -43 7 -49 0 -7 10 -13 24
-13 22 0 23 3 17 38 -8 47 -4 42 39 -38 42 -80 95 -242 136 -415 44 -185 84
-507 78 -620 -5 -93 -35 -235 -49 -235 -4 0 -8 5 -8 10 0 6 -11 10 -25 10 -19
0 -26 -7 -34 -37 -19 -66 -8 -99 24 -73 11 9 13 5 10 -22 -3 -34 -21 -88 -29
-88 -3 0 -2 16 1 35 5 32 4 35 -20 35 -14 0 -28 -6 -31 -12 -13 -27 3 49 18
87 8 22 15 58 16 81 0 51 6 57 36 37 20 -13 27 -13 40 -3 8 7 14 23 12 34 -2
16 -11 22 -38 24 l-35 3 0 192 c-1 218 -17 377 -50 487 -12 41 -32 117 -45
169 -12 52 -44 141 -71 200 -48 102 -75 193 -63 213 10 16 31 -11 40 -50z
m-432 -4 c6 -25 35 -22 45 4 8 21 8 21 15 -7 4 -16 16 -41 26 -56 25 -34 37
-66 60 -156 11 -40 32 -98 48 -131 16 -32 35 -89 41 -127 22 -128 59 -266 75
-284 9 -10 14 -20 12 -22 -2 -2 -7 -76 -10 -164 -3 -88 -9 -179 -12 -203 -6
-38 -4 -42 11 -35 13 4 16 3 11 -5 -7 -12 -47 -148 -60 -205 -6 -25 -8 -26
-22 -13 -11 12 -12 20 -4 35 15 29 12 58 -6 65 -22 9 -23 7 -34 -57 -5 -31
-14 -65 -19 -76 -6 -11 -11 -32 -11 -48 -1 -15 -12 -41 -25 -58 -32 -39 -32
-16 -1 52 37 79 68 310 68 509 0 145 -3 177 -32 310 -36 168 -106 386 -186
578 -30 71 -54 133 -54 137 0 15 59 -25 64 -43z m-195 -12 c18 -21 2 -46 -29
-46 -31 0 -42 16 -28 43 10 20 41 22 57 3z m620 -123 c16 -43 41 -104 55 -136
14 -32 26 -61 26 -65 0 -8 -217 -52 -253 -52 -12 0 -21 17 -33 58 -9 31 -29
95 -45 142 l-28 85 102 21 c153 32 141 36 176 -53z m110 -360 c29 -111 55
-232 50 -237 -2 -3 -56 -7 -120 -11 l-116 -8 -11 39 c-6 22 -24 86 -41 144
-17 58 -31 108 -31 112 0 7 128 33 235 47 6 0 21 -38 34 -86z m64 -368 c8 -36
2 -289 -7 -304 -2 -3 -59 -4 -126 -1 l-122 5 -1 167 -2 167 25 4 c14 2 70 3
125 3 l99 -1 9 -40z m-3199 -246 c30 -24 35 -59 8 -59 -10 0 -23 5 -29 11 -15
15 -67 7 -71 -11 -1 -9 18 -26 53 -44 54 -28 85 -65 85 -101 0 -9 -13 -30 -29
-46 -34 -34 -83 -39 -137 -13 -44 21 -50 32 -30 52 14 15 19 14 52 -1 39 -19
69 -15 78 9 9 23 -1 33 -53 56 -59 25 -81 45 -81 75 0 34 16 60 48 77 38 21
75 19 106 -5z m416 -9 c0 -26 -4 -30 -26 -30 l-25 0 7 -121 7 -121 -23 4 c-23
3 -24 4 -21 116 l3 112 -31 0 c-26 0 -31 4 -31 25 0 20 6 25 38 30 20 4 44 8
52 10 43 9 50 5 50 -25z m-152 -7 c-2 -22 -9 -29 -33 -33 l-30 -6 3 -88 c5
-118 0 -136 -38 -136 l-30 0 0 120 0 120 -42 -6 c-37 -6 -41 -5 -35 10 4 10 7
24 7 32 0 11 20 14 101 14 l100 0 -3 -27z m2921 -129 c3 -3 -18 -71 -45 -152
l-51 -147 -44 4 c-24 2 -72 12 -107 23 -63 19 -63 19 -57 51 6 31 51 198 61
226 3 11 26 12 122 6 64 -4 119 -9 121 -11z m98 -106 c-3 -8 -6 -5 -6 6 -1 11
2 17 5 13 3 -3 4 -12 1 -19z m-451 -74 c-4 -9 -9 -15 -11 -12 -3 3 -3 13 1 22
4 9 9 15 11 12 3 -3 3 -13 -1 -22z m294 -135 c-7 -11 -14 -18 -17 -15 -3 3 0
12 7 21 18 21 23 19 10 -6z m-2635 -39 c102 -12 135 -19 135 -29 0 -4 -16 -5
-35 -3 -26 3 -36 0 -42 -13 -8 -24 21 -45 63 -45 18 0 35 -3 38 -8 4 -6 -376
-7 -867 -3 l-88 1 7 35 c5 28 3 35 -10 35 -34 0 -14 19 27 24 120 16 646 20
772 6z m2713 -3 c318 -2 323 -2 317 -22 -3 -11 -8 -32 -11 -47 l-6 -28 -397 0
c-218 0 -433 -3 -479 -7 l-82 -6 24 54 c28 65 35 67 196 62 63 -1 260 -4 438
-6z m-184 -154 l98 -6 -7 -71 c-4 -39 -12 -74 -18 -78 -18 -11 -285 -10 -292
2 -3 5 -3 43 1 85 l7 75 56 0 c31 0 100 -3 155 -7z m-2986 -44 c-2 -25 -9 -45
-18 -49 -8 -4 -30 -15 -47 -24 -18 -9 -78 -26 -133 -37 -166 -32 -180 -26
-105 43 50 46 52 58 6 34 -28 -15 -31 -15 -41 3 -14 27 -5 31 108 42 53 6 120
14 147 18 89 15 87 16 83 -30z m386 4 c3 -21 6 -57 6 -80 l0 -43 -150 0 -150
0 0 80 0 80 144 0 143 0 7 -37z m2287 -61 c-12 -22 -85 -40 -195 -49 -75 -6
-78 -5 -68 13 19 36 47 53 157 92 l110 39 3 -38 c2 -21 -1 -47 -7 -57z m757
72 c40 -5 42 -7 42 -38 0 -55 -15 -60 -156 -52 -84 4 -123 3 -119 -4 3 -5 34
-10 68 -11 79 -1 125 -17 52 -18 -27 -1 -74 -4 -102 -7 l-53 -7 0 79 0 79 112
-8 c62 -5 132 -10 156 -13z m-2780 -45 c110 -37 122 -44 122 -65 0 -23 -4 -24
-58 -24 -32 0 -82 7 -112 15 -30 8 -69 18 -86 21 -28 5 -33 11 -38 46 -12 71
-15 71 172 7z m92 -179 c135 -13 141 -15 134 -33 -7 -20 -63 -30 -82 -15 -12
10 -18 7 -36 -15 -16 -20 -31 -27 -56 -27 -26 0 -31 3 -22 12 15 15 16 45 2
53 -6 3 -20 3 -31 0 -16 -5 -20 -13 -17 -35 l4 -27 -345 -1 c-190 -1 -355 2
-365 5 -17 5 -18 6 -3 15 10 5 17 20 17 33 0 32 -33 34 -54 3 -20 -29 -20 -35
2 -41 9 -3 -7 -5 -36 -4 -37 0 -50 3 -42 11 18 18 12 46 -12 46 -25 0 -58 -27
-58 -47 0 -8 -12 -13 -35 -13 -26 0 -35 4 -35 17 0 9 -7 24 -15 33 -14 15 -8
18 72 29 49 7 95 14 103 16 35 9 804 -4 910 -15z m2475 9 c143 -6 261 -12 262
-13 1 -1 -4 -18 -10 -39 -11 -34 -15 -37 -48 -37 -33 0 -36 2 -31 25 4 22 1
25 -23 25 -24 0 -27 -3 -23 -25 5 -23 3 -25 -37 -25 -37 0 -41 3 -41 22 1 13
-3 23 -9 24 -5 0 -18 4 -28 9 -27 12 -45 -10 -29 -35 11 -19 9 -20 -31 -20
-41 0 -42 1 -42 33 0 25 -4 32 -20 32 -26 0 -32 -33 -8 -50 15 -12 -16 -14
-231 -15 l-248 0 6 24 c4 16 1 26 -9 30 -26 10 -47 -5 -42 -30 4 -21 0 -24
-24 -24 -24 0 -29 4 -29 24 0 14 -4 27 -9 30 -18 11 -41 -6 -41 -30 0 -17 -6
-24 -20 -24 -13 0 -18 5 -14 15 5 13 -9 15 -91 14 -54 0 -101 3 -107 9 -21 21
27 32 188 43 93 6 171 13 173 15 8 8 362 4 616 -7z m-1965 -9 c8 -5 11 -10 5
-10 -5 0 -17 5 -25 10 -8 5 -10 10 -5 10 6 0 17 -5 25 -10z m1028 -77 c-15 -2
-42 -2 -60 0 -18 2 -6 4 27 4 33 0 48 -2 33 -4z m-2156 -189 c37 -19 68 -38
68 -42 0 -5 -14 -27 -31 -49 l-32 -41 -41 19 c-58 26 -149 26 -176 -1 -44 -44
-23 -62 113 -90 141 -31 197 -77 197 -168 0 -60 -20 -102 -70 -144 -97 -84
-275 -74 -383 21 l-36 32 41 40 41 39 53 -26 c30 -14 78 -28 111 -31 49 -4 62
-2 86 17 53 42 31 75 -58 90 -187 30 -255 79 -255 183 0 58 45 129 99 157 96
48 168 47 273 -6z m678 -39 l0 -65 -97 0 -98 0 3 -230 4 -231 -69 3 -68 3 -5
225 -5 225 -87 3 -88 3 0 27 c0 15 -3 44 -6 65 l-7 37 262 0 261 0 0 -65z
m484 35 c129 -66 159 -215 63 -314 -23 -24 -48 -45 -56 -48 -15 -4 18 -61 89
-155 l32 -43 -54 0 c-29 0 -62 -3 -73 -5 -16 -4 -30 10 -72 74 -29 43 -56 86
-59 95 -5 14 -18 16 -68 14 l-61 -3 -3 -87 -3 -88 -64 0 -65 0 0 296 0 296
173 -4 c161 -3 176 -5 221 -28z m704 -31 l-3 -62 -155 -4 c-85 -2 -157 -6
-159 -8 -2 -3 -6 -28 -9 -56 l-5 -52 137 6 136 6 0 -59 0 -59 -132 -3 -133 -3
0 -55 0 -55 163 4 162 3 0 -66 0 -66 -230 0 -230 0 0 264 c0 145 -3 278 -6
295 l-6 31 236 0 237 0 -3 -61z m480 -26 c23 -49 78 -176 123 -283 44 -107 82
-201 86 -207 4 -10 -13 -13 -70 -13 l-74 0 -20 53 -20 52 -127 3 -127 3 -25
-59 -26 -58 -61 4 c-34 2 -63 6 -65 7 -2 2 31 90 73 196 43 107 93 235 112
284 20 50 37 93 40 98 2 4 34 7 72 7 l67 0 42 -87z m499 -43 l91 -129 52 76
c29 42 70 101 91 130 l40 53 59 0 60 0 0 -295 0 -295 -65 0 -66 0 4 165 c2
114 0 165 -7 165 -6 -1 -28 -25 -49 -54 -20 -28 -57 -71 -80 -94 l-43 -43 -54
63 c-29 35 -62 78 -74 95 -12 18 -24 33 -28 33 -5 0 -8 -74 -8 -165 l0 -165
-63 0 -64 0 -6 197 c-4 108 -7 240 -7 295 l0 98 63 0 62 -1 92 -129z m-1965
-613 c24 -14 58 -41 76 -59 l32 -34 -43 -30 -43 -31 -33 26 c-25 19 -48 26
-97 29 -64 4 -64 4 -105 -37 -41 -41 -41 -41 -37 -106 4 -69 24 -102 80 -131
55 -28 149 -5 170 42 l11 23 48 -27 c27 -15 49 -30 49 -34 0 -5 -16 -26 -36
-47 -41 -46 -125 -91 -169 -91 -63 0 -136 30 -186 77 -88 83 -118 181 -87 287
16 54 99 138 158 159 64 24 157 17 212 -16z m343 -234 c4 -140 5 -257 1 -260
-3 -3 -31 -6 -63 -7 l-58 -1 2 175 c1 96 2 214 2 262 l1 86 54 0 53 -1 8 -254z
m333 144 c51 -62 107 -132 125 -157 l32 -45 3 151 3 151 50 7 c28 4 53 6 54 4
2 -2 5 -119 7 -261 l3 -257 -47 0 c-42 0 -50 4 -70 33 -13 18 -68 85 -123 150
l-100 117 -3 -149 -3 -149 -52 -4 c-28 -2 -53 -4 -53 -4 -1 1 -5 119 -9 264
l-7 262 48 -1 49 0 93 -112z m832 53 l0 -60 -155 0 -155 0 0 -45 0 -45 130 0
130 0 0 -55 0 -55 -131 0 -131 0 6 -31 c3 -17 6 -37 6 -43 0 -7 46 -12 146
-13 80 -1 147 -3 149 -5 2 -2 5 -28 6 -58 l4 -55 -170 -3 c-93 -1 -189 0 -212
3 l-43 6 0 253 c0 139 3 256 7 259 3 4 98 7 210 7 l203 0 0 -60z m-2487 -34
c80 -47 120 -63 125 -48 2 7 23 -1 58 -23 30 -19 70 -41 90 -50 19 -8 33 -18
30 -23 -3 -5 -46 -44 -96 -87 l-92 -78 7 49 c4 27 12 57 17 67 5 9 6 17 3 17
-14 0 -103 -56 -146 -91 l-47 -38 -6 37 c-6 40 -8 302 -2 302 2 0 29 -15 59
-34z m2950 -55 c43 -34 81 -60 84 -57 3 3 -2 26 -11 52 -25 74 -20 80 27 34
23 -24 72 -63 110 -86 37 -24 67 -46 67 -48 0 -2 -30 -21 -66 -42 -37 -22 -87
-57 -112 -79 l-45 -40 5 63 c4 34 3 62 0 62 -4 0 -23 -14 -42 -30 -19 -17 -51
-44 -71 -60 l-35 -29 0 142 c1 78 -3 155 -7 171 -7 24 -6 27 5 20 7 -6 48 -39
91 -73z"/>
<path d="M672 4088 c-24 -13 -61 -42 -83 -65 -43 -47 -50 -83 -25 -132 20 -39
122 -91 176 -91 37 0 48 6 85 43 49 48 61 90 50 164 -10 68 -48 103 -112 103
-30 0 -64 -9 -91 -22z m68 -43 c0 -2 -14 -12 -31 -21 -17 -8 -28 -11 -24 -4 4
6 17 15 29 20 27 11 26 11 26 5z"/>
<path d="M1002 4094 c-31 -22 -52 -66 -52 -111 1 -98 40 -163 112 -185 33 -10
43 -8 91 15 62 31 127 92 127 119 0 100 -200 217 -278 162z m137 -70 c14 -12
-19 -1 -35 12 -18 14 -18 14 6 3 14 -6 27 -13 29 -15z m-13 -40 c18 -14 18
-14 -6 -3 -31 14 -36 19 -24 19 6 0 19 -7 30 -16z m79 -4 c10 -11 16 -20 13
-20 -3 0 -13 9 -23 20 -10 11 -16 20 -13 20 3 0 13 -9 23 -20z m-100 -80 c3
-6 -1 -7 -9 -4 -18 7 -21 14 -7 14 6 0 13 -4 16 -10z"/>
<path d="M877 3802 c-27 -30 -22 -71 10 -83 15 -5 36 -9 46 -7 47 7 48 75 2
96 -34 16 -39 15 -58 -6z"/>
<path d="M455 3778 c-37 -29 -55 -76 -55 -145 0 -109 36 -173 98 -173 35 0
102 34 139 70 27 26 31 39 35 98 5 62 3 69 -21 96 -29 32 -114 76 -147 76 -12
0 -34 -10 -49 -22z"/>
<path d="M1250 3774 c-19 -8 -49 -26 -67 -40 -32 -24 -33 -27 -33 -100 0 -68
2 -77 26 -99 31 -28 121 -75 145 -75 25 0 70 40 85 76 8 19 14 60 14 93 0 136
-64 191 -170 145z"/>
<path d="M2165 3743 c-295 -38 -542 -196 -684 -439 -167 -287 -161 -656 14
-930 115 -179 363 -358 566 -408 76 -19 266 -21 353 -5 100 18 217 69 331 144
228 148 351 341 401 626 22 128 8 259 -45 416 -66 195 -174 333 -351 452 -161
107 -404 167 -585 144z m255 -134 c130 -26 236 -80 325 -164 l70 -65 -70 51
c-94 70 -166 102 -315 140 -207 53 -285 45 -565 -56 -11 -4 -2 4 21 17 60 36
220 89 294 97 78 8 115 5 240 -20z m-265 -402 c44 -24 132 -75 195 -113 63
-39 160 -96 215 -128 121 -71 145 -92 145 -126 0 -24 -30 -69 -48 -71 -4 0
-16 -2 -27 -3 -21 -3 -106 -45 -92 -46 4 0 27 9 50 21 70 35 22 -4 -88 -70
-104 -64 -140 -78 -90 -35 l30 25 -30 -15 c-45 -21 -186 -105 -220 -130 -54
-40 -121 -76 -143 -76 -12 0 -22 -5 -22 -11 0 -7 14 -10 36 -7 32 4 34 3 18
-9 -26 -19 -49 -16 -81 11 l-28 24 -3 386 -3 386 33 20 c40 25 52 22 153 -33z"/>
<path d="M2660 2789 c0 -5 5 -7 10 -4 6 3 10 8 10 11 0 2 -4 4 -10 4 -5 0 -10
-5 -10 -11z"/>
<path d="M742 3678 c-21 -21 -14 -66 13 -84 23 -15 27 -15 50 0 17 11 25 26
25 44 0 35 -16 52 -50 52 -14 0 -31 -5 -38 -12z"/>
<path d="M1006 3674 c-35 -34 -9 -94 40 -94 18 0 29 9 41 35 16 33 15 36 -2
55 -22 24 -58 26 -79 4z"/>
<path d="M875 3640 c-9 -28 2 -40 36 -40 26 0 29 3 29 30 0 27 -3 30 -29 30
-21 0 -32 -6 -36 -20z"/>
<path d="M872 3548 c-7 -7 -12 -27 -12 -44 0 -28 5 -34 35 -44 42 -14 72 -1
81 36 9 34 -20 64 -61 64 -17 0 -36 -5 -43 -12z"/>
<path d="M690 3454 c-74 -32 -129 -75 -140 -109 -20 -62 30 -133 125 -176 49
-23 133 -25 162 -4 39 27 54 121 32 198 -8 28 -22 45 -62 72 -58 39 -67 41
-117 19z m35 -174 c3 -5 2 -10 -4 -10 -5 0 -13 5 -16 10 -3 6 -2 10 4 10 5 0
13 -4 16 -10z"/>
<path d="M1025 3441 c-55 -33 -70 -67 -70 -158 0 -72 3 -84 24 -107 34 -36 53
-40 119 -21 94 27 137 58 167 119 29 59 27 73 -17 112 -77 69 -165 91 -223 55z"/>
<path d="M1710 3944 c0 -14 3 -14 15 -4 8 7 15 14 15 16 0 2 -7 4 -15 4 -8 0
-15 -7 -15 -16z"/>
<path d="M3733 3822 c-13 -2 -23 -9 -23 -16 0 -21 20 -33 46 -28 44 8 21 52
-23 44z"/>
<path d="M3760 3711 c0 -10 7 -24 16 -31 12 -11 18 -10 31 3 21 21 9 47 -22
47 -18 0 -25 -5 -25 -19z"/>
<path d="M3801 3631 c-21 -14 -5 -41 24 -41 22 0 26 4 23 22 -3 25 -25 33 -47
19z"/>
<path d="M3821 3561 c-7 -5 -10 -14 -6 -20 5 -9 10 -9 21 0 26 22 14 38 -15
20z"/>
<path d="M3841 3521 c-10 -6 -12 -20 -8 -47 7 -44 20 -59 41 -51 23 9 20 38
-4 44 -20 5 -28 23 -10 23 6 0 10 9 10 20 0 22 -7 25 -29 11z"/>
<path d="M3850 3369 c0 -25 22 -49 45 -49 27 0 34 27 13 48 -15 15 -58 16 -58
1z"/>
<path d="M3898 3283 c-21 -5 -22 -16 -8 -44 16 -30 40 -24 40 10 0 33 -6 39
-32 34z"/>
<path d="M3902 3192 c-35 -5 -26 -46 11 -50 23 -3 27 0 27 22 0 29 -6 33 -38
28z"/>
<path d="M3903 3100 c-24 -10 -31 -46 -11 -52 38 -13 74 15 62 47 -7 17 -19
18 -51 5z"/>
<path d="M3907 3003 c-4 -3 -7 -17 -7 -30 0 -20 5 -23 35 -23 36 0 42 10 29
44 -6 16 -45 22 -57 9z"/>
<path d="M3895 2889 c-9 -27 9 -40 50 -37 25 3 30 7 30 28 0 22 -5 25 -37 28
-30 3 -37 -1 -43 -19z"/>
<path d="M3904 2806 c-3 -8 -4 -25 -2 -38 2 -17 9 -23 28 -23 22 0 25 5 28 38
3 34 1 37 -23 37 -14 0 -28 -6 -31 -14z"/>
<path d="M3276 3872 c-3 -5 -1 -25 5 -45 9 -32 14 -37 39 -37 37 0 39 16 5 32
-27 12 -31 23 -15 33 6 4 8 11 5 16 -8 11 -32 12 -39 1z"/>
<path d="M3319 3708 c4 -13 18 -24 30 -26 19 -3 22 1 19 20 -2 17 -10 24 -30
26 -25 3 -27 1 -19 -20z"/>
<path d="M3344 3646 c-9 -24 3 -46 26 -46 17 0 21 5 18 27 -3 31 -34 44 -44
19z"/>
<path d="M3365 3560 c-4 -7 -3 -16 3 -22 14 -14 57 -6 57 12 0 18 -50 26 -60
10z"/>
<path d="M3413 3483 c-7 -2 -13 -18 -13 -34 0 -27 3 -30 28 -27 23 2 27 8 27
33 0 29 -15 40 -42 28z"/>
<path d="M3435 3377 c-17 -13 -17 -15 4 -36 26 -26 41 -20 41 20 0 32 -15 37
-45 16z"/>
<path d="M3467 3293 c-12 -3 -17 -12 -15 -26 4 -27 55 -37 64 -13 6 16 -12 47
-25 45 -3 -1 -14 -3 -24 -6z"/>
<path d="M3477 3213 c-15 -27 -16 -64 -3 -69 19 -7 56 13 56 31 0 26 -42 56
-53 38z"/>
<path d="M3498 3109 c-11 -6 -18 -22 -18 -39 0 -26 4 -30 29 -30 34 0 45 19
31 55 -10 27 -16 29 -42 14z"/>
<path d="M3484 2996 c-11 -28 4 -48 33 -44 22 2 28 8 28 28 0 20 -6 26 -28 28
-18 2 -29 -2 -33 -12z"/>
<path d="M3497 2914 c-14 -14 -7 -65 9 -71 21 -8 46 24 42 52 -3 20 -37 33
-51 19z"/>
<path d="M3487 2814 c-16 -16 -7 -52 15 -57 25 -7 39 8 36 38 -3 20 -37 33
-51 19z"/>
<path d="M3474 2713 c-2 -7 -6 -20 -9 -29 -7 -21 12 -44 35 -44 16 0 40 43 40
70 0 15 -62 17 -66 3z"/>
<path d="M440 2265 c-18 -21 -5 -45 25 -45 21 0 25 5 25 30 0 23 -5 30 -19 30
-10 0 -24 -7 -31 -15z"/>
<path d="M554 2265 c-8 -21 4 -35 31 -35 21 0 35 17 35 41 0 15 -60 10 -66 -6z"/>
<path d="M692 2268 c-23 -23 -13 -38 23 -38 28 0 35 4 35 19 0 28 -37 40 -58
19z"/>
<path d="M900 2271 c0 -6 -6 -8 -14 -5 -8 3 -17 0 -21 -5 -3 -6 -11 -9 -16 -6
-5 4 -9 -1 -9 -9 0 -12 11 -15 53 -13 45 2 52 5 52 22 0 13 -8 21 -22 23 -13
2 -23 -1 -23 -7z"/>
<path d="M1008 2273 c-22 -6 -31 -32 -13 -39 23 -9 45 3 45 26 0 20 -2 21 -32
13z"/>
<path d="M766 2254 c-9 -24 -9 -24 26 -21 22 2 34 8 36 20 5 23 -53 24 -62 1z"/>
<path d="M1090 2251 c0 -24 23 -33 46 -17 22 16 10 36 -22 36 -17 0 -24 -6
-24 -19z"/>
<path d="M3280 2283 c-8 -3 -23 -13 -33 -21 -22 -19 -7 -32 39 -32 24 0 33 5
37 22 10 35 -5 45 -43 31z"/>
<path d="M3380 2275 c-16 -20 -6 -45 19 -45 20 0 37 32 26 50 -9 15 -31 12
-45 -5z"/>
<path d="M3465 2266 c-17 -12 -16 -13 10 -20 26 -7 44 4 45 27 0 12 -35 8 -55
-7z"/>
<path d="M3561 2261 c-16 -29 -14 -33 17 -29 19 2 27 9 27 23 0 27 -31 31 -44
6z"/>
<path d="M4052 2268 c-23 -23 -14 -38 24 -38 31 0 35 3 32 23 -3 25 -36 35
-56 15z"/>
<path d="M3677 2257 c-8 -22 8 -39 34 -35 16 2 25 11 27 26 3 18 -1 22 -26 22
-17 0 -32 -6 -35 -13z"/>
<path d="M3775 2260 c-10 -16 4 -30 32 -30 19 0 24 4 19 16 -3 9 -6 18 -6 20
0 9 -39 4 -45 -6z"/>
<path d="M3870 2261 c0 -13 67 -34 85 -27 8 3 15 12 15 21 0 11 -12 15 -50 15
-27 0 -50 -4 -50 -9z"/>
<path d="M690 1885 c-20 -25 -8 -50 25 -50 24 0 31 5 33 24 6 37 -34 55 -58
26z"/>
<path d="M884 1875 c-8 -31 6 -48 32 -43 29 5 26 62 -3 66 -17 3 -24 -3 -29
-23z"/>
<path d="M794 1876 c-7 -19 12 -46 33 -46 21 0 13 54 -10 58 -9 2 -20 -4 -23
-12z"/>
<path d="M1002 1863 c2 -17 10 -29 21 -31 13 -3 17 3 17 27 0 25 -4 31 -21 31
-16 0 -20 -5 -17 -27z"/>
<path d="M1095 1880 c-9 -15 3 -47 22 -54 20 -8 23 -5 26 30 2 23 -3 30 -20
32 -11 2 -24 -2 -28 -8z"/>
<path d="M1213 1883 c-7 -2 -13 -18 -13 -34 0 -27 3 -30 28 -27 20 2 28 9 30
27 5 31 -16 46 -45 34z"/>
<path d="M3372 1881 c-23 -14 -10 -46 18 -46 20 0 25 5 25 25 0 26 -20 36 -43
21z"/>
<path d="M3460 1860 c0 -25 4 -30 24 -30 17 0 25 7 28 25 6 30 2 35 -29 35
-19 0 -23 -5 -23 -30z"/>
<path d="M3564 1875 c-9 -23 4 -47 23 -43 11 2 19 14 21 31 3 22 -1 27 -18 27
-11 0 -23 -7 -26 -15z"/>
<path d="M3664 1875 c-8 -21 3 -45 20 -45 18 0 40 36 31 50 -9 15 -45 12 -51
-5z"/>
<path d="M1720 1473 c0 -32 -3 -68 -6 -80 -6 -23 -5 -23 95 -23 95 0 104 2
126 25 33 33 32 70 -4 106 -28 28 -33 29 -120 29 l-91 0 0 -57z"/>
<path d="M3037 1450 c-10 -16 -29 -58 -42 -94 l-25 -66 85 0 c47 0 85 1 85 3
0 8 -72 173 -79 179 -4 4 -15 -5 -24 -22z"/>
</g>
</svg>
